<svg t="1708589249186" class="icon" viewBox="0 0 1024 1024" version="1.1" xmlns="http://www.w3.org/2000/svg" p-id="24196" width="200" height="200"><path d="M354.986667 307.2c13.653333 13.653333 27.306667 20.48 40.96 20.48 20.48 6.826667 40.96 0 54.613333-13.653333 20.48-13.653333 27.306667-34.133333 40.96-47.786667 20.48-47.786667 20.48-95.573333 0-143.36-13.653333-20.48-27.306667-40.96-47.786667-47.786667-13.653333-6.826667-27.306667-13.653333-40.96-13.653333-13.653333 6.826667-27.306667 6.826667-34.133333 13.653333-20.48 13.653333-34.133333 34.133333-40.96 61.44-13.653333 34.133333-13.653333 68.266667-6.826667 102.4 6.826667 27.306667 20.48 47.786667 34.133334 68.266667zM607.573333 334.506667c13.653333 0 34.133333 6.826667 47.786667 0 13.653333 0 34.133333-13.653333 40.96-20.48 20.48-13.653333 34.133333-34.133333 40.96-61.44 6.826667-20.48 13.653333-40.96 13.653333-61.44 0-27.306667-13.653333-47.786667-27.306666-68.266667-6.826667-13.653333-20.48-27.306667-34.133334-34.133333-6.826667 0-20.48-6.826667-40.96-6.826667-6.826667 0-20.48 6.826667-27.306666 13.653333-13.653333 6.826667-20.48 20.48-34.133334 34.133334-13.653333 20.48-20.48 34.133333-27.306666 54.613333-6.826667 13.653333-6.826667 27.306667-6.826667 40.96 0 20.48 0 47.786667 13.653333 68.266667 6.826667 20.48 20.48 34.133333 40.96 40.96zM805.546667 675.84c-6.826667-6.826667-13.653333-13.653333-20.48-13.653333-27.306667-20.48-54.613333-47.786667-81.92-75.093334-20.48-34.133333-54.613333-61.44-75.093334-102.4-20.48-20.48-40.96-47.786667-68.266666-61.44-20.48-6.826667-40.96-13.653333-68.266667-6.826666-40.96 0-81.92 34.133333-102.4 68.266666-20.48 34.133333-40.96 54.613333-68.266667 81.92-13.653333 13.653333-27.306667 27.306667-47.786666 40.96l-20.48 20.48c-27.306667 27.306667-54.613333 54.613333-68.266667 88.746667-6.826667 27.306667-13.653333 54.613333-6.826667 81.92 6.826667 20.48 6.826667 34.133333 20.48 54.613333 6.826667 13.653333 20.48 34.133333 40.96 47.786667 20.48 13.653333 40.96 20.48 61.44 20.48h88.746667c20.48 0 47.786667-6.826667 68.266667-13.653333 47.786667-6.826667 95.573333-6.826667 143.36 6.826666 34.133333 6.826667 75.093333 13.653333 109.226666 13.653334 27.306667 0 54.613333-6.826667 75.093334-20.48 20.48-13.653333 40.96-34.133333 47.786666-54.613334 13.653333-34.133333 20.48-68.266667 13.653334-102.4-6.826667-27.306667-20.48-54.613333-40.96-75.093333zM907.946667 436.906667c0-20.48-6.826667-40.96-20.48-61.44-6.826667-13.653333-27.306667-34.133333-40.96-40.96-13.653333-6.826667-34.133333-13.653333-54.613334-6.826667-13.653333 0-27.306667 6.826667-40.96 13.653333-13.653333 6.826667-27.306667 20.48-34.133333 40.96-13.653333 27.306667-13.653333 54.613333-13.653333 75.093334 0 20.48 0 47.786667 6.826666 68.266666 6.826667 20.48 20.48 34.133333 40.96 40.96 20.48 6.826667 40.96 13.653333 61.44 6.826667 20.48 0 40.96-6.826667 54.613334-20.48 20.48-6.826667 27.306667-27.306667 34.133333-40.96 6.826667-27.306667 6.826667-47.786667 6.826667-75.093333zM218.453333 518.826667c20.48 0 40.96-6.826667 54.613334-20.48 13.653333-13.653333 27.306667-27.306667 34.133333-47.786667 6.826667-20.48 6.826667-47.786667 6.826667-68.266667 0-13.653333 0-27.306667-6.826667-40.96-13.653333-27.306667-34.133333-54.613333-68.266667-68.266666-6.826667-13.653333-20.48-13.653333-40.96-13.653334-13.653333 6.826667-20.48 13.653333-34.133333 20.48-6.826667 6.826667-13.653333 20.48-20.48 27.306667-13.653333 27.306667-20.48 47.786667-27.306667 75.093333 0 20.48 0 40.96 6.826667 61.44 6.826667 20.48 20.48 40.96 34.133333 54.613334 20.48 13.653333 40.96 20.48 61.44 20.48z" p-id="24197"></path></svg>